<svg width="30" height="30" viewBox="0 0 30 30" fill="none" xmlns="http://www.w3.org/2000/svg">
<path d="M15.0029 0C6.71711 0 0 6.71711 0 15.0029C0 22.0387 4.84415 27.9427 11.3788 29.5642V19.5878H8.28522V15.0029H11.3788V13.0273C11.3788 7.92095 13.6899 5.55409 18.7033 5.55409C19.6538 5.55409 21.294 5.74072 21.9649 5.92676V10.0826C21.6108 10.0454 20.9957 10.0268 20.2318 10.0268C17.7719 10.0268 16.8213 10.9587 16.8213 13.3814V15.0029H21.7218L20.8799 19.5878H16.8213V29.896C24.2501 28.9989 30.0065 22.6736 30.0065 15.0029C30.0059 6.71711 23.2887 0 15.0029 0Z" fill="#ECE7D2"/>
</svg>
